<?xml version="1.0" encoding="utf-8"?>
<!-- Generator: Adobe Illustrator 25.4.1, SVG Export Plug-In . SVG Version: 6.00 Build 0)  -->
<svg version="1.1" id="Layer_1" xmlns="http://www.w3.org/2000/svg" xmlns:xlink="http://www.w3.org/1999/xlink" x="0px" y="0px"
	 viewBox="0 0 634.21 159.92" style="enable-background:new 0 0 634.21 159.92;" xml:space="preserve">
<style type="text/css">
	.st0{fill:url(#SVGID_1_);}
	.st1{fill:#FFFFFF;}
</style>
<g>
	<linearGradient id="SVGID_1_" gradientUnits="userSpaceOnUse" x1="314.6586" y1="-9.0236" x2="493.55" y2="186.2022">
		<stop  offset="0.1634" style="stop-color:#F9AE1F"/>
		<stop  offset="0.5327" style="stop-color:#EC6725"/>
		<stop  offset="0.883" style="stop-color:#E6282A"/>
	</linearGradient>
	<path class="st0" d="M341.55,105.1h39.84v10.93h-52.06L341.55,105.1z M301.91,46.49H278.1l5.28,11.13h17.54
		c9.04,0,14.41,4.07,14.41,11.52v0.2c0,7.05-5.56,11.62-14.31,11.62h-7.62l15.8,35.07h14.4L311.15,89.7
		c9.74-2.78,16.59-9.64,16.59-21.06v-0.2c0-6.06-2.09-11.23-5.76-15C317.51,49.07,310.65,46.49,301.91,46.49z M254.35,46.24
		l-30.6,70.04h12.52l7.15-16.79l0.83-2h22.4l-4.01-10.93h-13.84l11.02-25.72l23.54,55.44h12.91l-30.6-70.04H254.35z M341.55,80.71
		v5.72h38.55V75.5h-38.55V80.71z M380.89,57.42V46.49h-51.56l12.22,10.93H380.89z M560.38,124.97l6.92-15.04l-45.18-79.3
		L560.38,124.97z M556.72,30.63l22.06,54.03l5.58-12.84L556.72,30.63z M570.17,103.54l6.05-13.26l-35.46-59.65L570.17,103.54z
		 M490.86,45.94l-30.6,70.04h12.52l7.15-16.79l0.83-2h22.4l-4.01-10.93H485.3l11.02-25.72l23.54,55.44h12.91l-30.6-70.04H490.86z
		 M454.58,116.02l-49.56-69.54l0,0v0h-14.65v0l0,0l49.56,69.54H454.58z M391.24,64.7v51.32h12.02V81.56L391.24,64.7z M453.72,99.85
		V46.48H441.7v36.25L453.72,99.85z"/>
	<g>
		<path class="st1" d="M61.38,46.36v69.74H49.13V46.36H61.38z"/>
		<path class="st1" d="M108.3,98.96h-0.4L86.09,66.29v49.81H74.03V46.36h13.05l21.22,32.98l21.22-32.98h13.05v69.74h-12.25V66.09
			L108.3,98.96z"/>
		<path class="st1" d="M187.6,117.29c-21.82,0-36.16-15.54-36.16-35.96c0-19.63,14.94-36.16,35.96-36.16
			c12.15,0,19.63,3.39,26.8,9.46l-7.77,9.26c-5.38-4.58-10.66-7.47-19.53-7.47c-12.85,0-22.61,11.16-22.61,24.71
			c0,14.45,9.46,25.01,23.71,25.01c6.58,0,12.55-2.09,16.84-5.28V87.8H187V77.14h29.69v29.29
			C209.82,112.31,199.95,117.29,187.6,117.29z"/>
	</g>
</g>
</svg>
